<svg xmlns="http://www.w3.org/2000/svg" xmlns:xlink="http://www.w3.org/1999/xlink" width="500" zoomAndPan="magnify" viewBox="0 0 375 374.999991" height="500" preserveAspectRatio="xMidYMid meet" version="1.0"><defs><clipPath id="95d3e3d6dc"><path d="M 146 0 L 229 0 L 229 83.613281 L 146 83.613281 Z M 146 0 " clip-rule="nonzero"/></clipPath><clipPath id="9f0104b440"><path d="M 103.125 23 L 150 23 L 150 57 L 103.125 57 Z M 103.125 23 " clip-rule="nonzero"/></clipPath><clipPath id="84d44aa50c"><path d="M 0 104 L 42 104 L 42 271.113281 L 0 271.113281 Z M 0 104 " clip-rule="nonzero"/></clipPath><clipPath id="1b19b3b666"><path d="M 224 319 L 271.875 319 L 271.875 353 L 224 353 Z M 224 319 " clip-rule="nonzero"/></clipPath><clipPath id="36d2a2a304"><path d="M 146 291.363281 L 229 291.363281 L 229 375 L 146 375 Z M 146 291.363281 " clip-rule="nonzero"/></clipPath><clipPath id="3810127add"><path d="M 333 104 L 375 104 L 375 271.113281 L 333 271.113281 Z M 333 104 " clip-rule="nonzero"/></clipPath></defs><rect x="-37.5" width="450" fill="#ffffff" y="-37.499999" height="449.999989" fill-opacity="1"/><rect x="-37.5" width="450" fill="#333333" y="-37.499999" height="449.999989" fill-opacity="1"/><g clip-path="url(#95d3e3d6dc)"><path fill="#50c878" d="M 222.304688 -25.882812 C 222.191406 -26.210938 211.1875 -59.042969 227.613281 -76.480469 C 229.125 -78.085938 229.050781 -80.609375 227.445312 -82.121094 C 225.84375 -83.632812 223.316406 -83.558594 221.808594 -81.953125 C 202.265625 -61.210938 213.976562 -25.582031 214.742188 -23.34375 C 215.125 -22.109375 221.746094 -0.0429688 208.71875 16.023438 L 171.734375 -20.96875 C 175.089844 -23.613281 178.691406 -25.4375 182.339844 -26.652344 L 203.359375 -5.625 C 204.136719 -4.84375 205.15625 -4.453125 206.179688 -4.453125 C 207.199219 -4.453125 208.222656 -4.84375 209 -5.621094 C 210.558594 -7.179688 210.558594 -9.707031 209.003906 -11.265625 L 191.703125 -28.574219 C 196.019531 -28.964844 200.152344 -28.734375 203.75 -28.25 C 205.933594 -27.953125 207.941406 -29.488281 208.238281 -31.671875 C 208.535156 -33.855469 207.003906 -35.863281 204.816406 -36.160156 C 199.472656 -36.878906 191.492188 -37.25 183.105469 -35.132812 C 182.667969 -35.09375 182.242188 -34.976562 181.835938 -34.792969 C 175.441406 -32.992188 168.875 -29.695312 163.109375 -23.96875 C 163.105469 -23.96875 163.105469 -23.964844 163.101562 -23.964844 C 163.101562 -23.964844 163.101562 -23.960938 163.101562 -23.960938 C 163.097656 -23.960938 163.097656 -23.957031 163.097656 -23.957031 C 154.835938 -15.742188 150.390625 -4.546875 150.238281 8.417969 C 150.128906 17.75 152.230469 24.871094 152.652344 26.210938 C 152.664062 26.246094 152.675781 26.28125 152.6875 26.3125 C 152.800781 26.644531 163.804688 59.476562 147.386719 76.914062 C 145.875 78.519531 145.949219 81.042969 147.554688 82.554688 C 148.324219 83.28125 149.308594 83.640625 150.289062 83.640625 C 151.351562 83.640625 152.410156 83.21875 153.195312 82.382812 C 172.734375 61.632812 161.003906 25.972656 160.25 23.773438 C 159.855469 22.511719 153.292969 0.71875 166.078125 -15.339844 L 203.007812 21.597656 C 199.683594 24.171875 196.125 25.945312 192.523438 27.128906 L 171.417969 6.023438 C 169.859375 4.464844 167.332031 4.464844 165.773438 6.023438 C 164.21875 7.582031 164.21875 10.109375 165.773438 11.667969 L 183.128906 29.019531 C 178.871094 29.390625 174.800781 29.160156 171.25 28.683594 C 169.066406 28.386719 167.058594 29.917969 166.761719 32.101562 C 166.464844 34.285156 167.996094 36.296875 170.179688 36.589844 C 172.535156 36.910156 175.394531 37.160156 178.578125 37.160156 C 188.371094 37.160156 201.195312 34.785156 211.53125 24.746094 C 211.578125 24.707031 211.625 24.667969 211.671875 24.621094 C 211.691406 24.601562 211.710938 24.578125 211.730469 24.558594 C 211.78125 24.503906 211.835938 24.457031 211.890625 24.402344 C 220.144531 16.203125 224.589844 5.027344 224.757812 -7.917969 C 224.875 -17.238281 222.769531 -24.414062 222.34375 -25.769531 C 222.332031 -25.804688 222.320312 -25.84375 222.304688 -25.882812 " fill-opacity="1" fill-rule="nonzero"/></g><g clip-path="url(#9f0104b440)"><path fill="#50c878" d="M 145.722656 49.617188 L 127.929688 31.824219 C 133.839844 30.773438 139.804688 30.875 144.824219 31.375 C 147.015625 31.601562 148.96875 29.996094 149.1875 27.800781 C 149.410156 25.609375 147.808594 23.652344 145.613281 23.4375 C 128.410156 21.722656 114.363281 25.421875 104.992188 34.140625 C 103.378906 35.644531 103.285156 38.167969 104.785156 39.78125 C 105.574219 40.625 106.636719 41.050781 107.707031 41.050781 C 108.679688 41.050781 109.65625 40.699219 110.425781 39.984375 C 113.054688 37.539062 116.035156 35.710938 119.1875 34.367188 L 140.082031 55.261719 C 140.859375 56.039062 141.882812 56.429688 142.902344 56.429688 C 143.921875 56.429688 144.945312 56.039062 145.722656 55.261719 C 147.28125 53.703125 147.28125 51.175781 145.722656 49.617188 " fill-opacity="1" fill-rule="nonzero"/></g><path fill="#50c878" d="M 82.714844 148.152344 C 81.210938 146.539062 78.6875 146.449219 77.074219 147.949219 C 73.695312 151.09375 69.738281 153.214844 65.578125 154.605469 L 44.207031 133.234375 C 42.648438 131.675781 40.121094 131.675781 38.566406 133.234375 C 37.007812 134.792969 37.007812 137.316406 38.566406 138.875 L 56.273438 156.582031 C 51.472656 157.109375 46.757812 156.964844 42.671875 156.554688 C 40.476562 156.339844 38.523438 157.9375 38.304688 160.128906 C 38.085938 162.324219 39.683594 164.277344 41.878906 164.496094 C 44.351562 164.742188 47.023438 164.902344 49.816406 164.902344 C 60.578125 164.902344 73.101562 162.542969 82.507812 153.789062 C 84.121094 152.289062 84.214844 149.765625 82.714844 148.152344 " fill-opacity="1" fill-rule="nonzero"/><g clip-path="url(#84d44aa50c)"><path fill="#50c878" d="M 34.804688 161.617188 C 34.691406 161.289062 23.6875 128.457031 40.113281 111.019531 C 41.625 109.414062 41.550781 106.890625 39.945312 105.378906 C 38.34375 103.867188 35.816406 103.941406 34.308594 105.546875 C 14.765625 126.289062 26.476562 161.917969 27.242188 164.15625 C 27.625 165.390625 34.246094 187.457031 21.21875 203.523438 L -15.765625 166.53125 C -12.410156 163.886719 -8.808594 162.0625 -5.160156 160.847656 L 15.859375 181.875 C 16.636719 182.65625 17.65625 183.046875 18.679688 183.046875 C 19.699219 183.046875 20.722656 182.65625 21.5 181.878906 C 23.058594 180.320312 23.058594 177.792969 21.503906 176.234375 L 4.203125 158.925781 C 8.519531 158.535156 12.652344 158.765625 16.25 159.25 C 18.433594 159.546875 20.441406 158.011719 20.738281 155.828125 C 21.035156 153.644531 19.503906 151.636719 17.316406 151.339844 C 11.972656 150.621094 3.992188 150.25 -4.394531 152.367188 C -4.832031 152.40625 -5.257812 152.523438 -5.664062 152.707031 C -12.058594 154.507812 -18.625 157.804688 -24.390625 163.53125 C -24.394531 163.53125 -24.394531 163.535156 -24.398438 163.535156 C -24.398438 163.535156 -24.398438 163.539062 -24.398438 163.539062 C -24.402344 163.539062 -24.402344 163.542969 -24.402344 163.542969 C -32.664062 171.757812 -37.109375 182.953125 -37.261719 195.917969 C -37.371094 205.25 -35.269531 212.371094 -34.847656 213.710938 C -34.835938 213.746094 -34.824219 213.78125 -34.8125 213.8125 C -34.699219 214.144531 -23.695312 246.976562 -40.113281 264.414062 C -41.625 266.019531 -41.550781 268.542969 -39.945312 270.054688 C -39.175781 270.78125 -38.191406 271.140625 -37.210938 271.140625 C -36.148438 271.140625 -35.089844 270.71875 -34.304688 269.882812 C -14.765625 249.132812 -26.496094 213.472656 -27.25 211.273438 C -27.644531 210.011719 -34.207031 188.21875 -21.421875 172.160156 L 15.507812 209.097656 C 12.183594 211.671875 8.625 213.445312 5.023438 214.628906 L -16.082031 193.523438 C -17.640625 191.964844 -20.167969 191.964844 -21.726562 193.523438 C -23.28125 195.082031 -23.28125 197.609375 -21.726562 199.167969 L -4.371094 216.519531 C -8.628906 216.890625 -12.699219 216.660156 -16.25 216.183594 C -18.433594 215.886719 -20.441406 217.417969 -20.738281 219.601562 C -21.035156 221.785156 -19.503906 223.796875 -17.320312 224.089844 C -14.964844 224.410156 -12.105469 224.660156 -8.921875 224.660156 C 0.871094 224.660156 13.695312 222.285156 24.03125 212.246094 C 24.078125 212.207031 24.125 212.167969 24.171875 212.121094 C 24.191406 212.101562 24.210938 212.078125 24.230469 212.058594 C 24.28125 212.003906 24.335938 211.953125 24.390625 211.902344 C 32.644531 203.703125 37.089844 192.527344 37.257812 179.582031 C 37.375 170.261719 35.269531 163.085938 34.84375 161.730469 C 34.832031 161.695312 34.820312 161.65625 34.804688 161.617188 " fill-opacity="1" fill-rule="nonzero"/></g><g clip-path="url(#1b19b3b666)"><path fill="#50c878" d="M 270.214844 335.652344 C 268.710938 334.039062 266.1875 333.949219 264.574219 335.449219 C 261.195312 338.59375 257.238281 340.714844 253.078125 342.105469 L 231.707031 320.734375 C 230.148438 319.175781 227.621094 319.175781 226.066406 320.734375 C 224.507812 322.292969 224.507812 324.816406 226.066406 326.375 L 243.773438 344.082031 C 238.972656 344.609375 234.257812 344.464844 230.171875 344.054688 C 227.976562 343.839844 226.023438 345.4375 225.804688 347.628906 C 225.585938 349.824219 227.183594 351.777344 229.378906 351.996094 C 231.851562 352.242188 234.523438 352.402344 237.316406 352.402344 C 248.078125 352.402344 260.601562 350.042969 270.007812 341.289062 C 271.621094 339.789062 271.714844 337.265625 270.214844 335.652344 " fill-opacity="1" fill-rule="nonzero"/></g><g clip-path="url(#36d2a2a304)"><path fill="#50c878" d="M 222.304688 349.117188 C 222.191406 348.789062 211.1875 315.957031 227.613281 298.519531 C 229.125 296.914062 229.050781 294.390625 227.445312 292.878906 C 225.84375 291.367188 223.316406 291.441406 221.808594 293.046875 C 202.265625 313.789062 213.976562 349.417969 214.742188 351.65625 C 215.125 352.890625 221.746094 374.957031 208.71875 391.023438 L 171.734375 354.03125 C 175.089844 351.386719 178.691406 349.5625 182.339844 348.347656 L 203.359375 369.375 C 204.136719 370.15625 205.15625 370.546875 206.179688 370.546875 C 207.199219 370.546875 208.222656 370.15625 209 369.378906 C 210.558594 367.820312 210.558594 365.292969 209.003906 363.734375 L 191.703125 346.425781 C 196.019531 346.035156 200.152344 346.265625 203.75 346.75 C 205.933594 347.046875 207.941406 345.511719 208.238281 343.328125 C 208.535156 341.144531 207.003906 339.136719 204.816406 338.839844 C 199.472656 338.121094 191.492188 337.75 183.105469 339.867188 C 182.667969 339.90625 182.242188 340.023438 181.835938 340.207031 C 175.441406 342.007812 168.875 345.304688 163.109375 351.03125 C 163.105469 351.03125 163.105469 351.035156 163.101562 351.035156 C 163.101562 351.035156 163.101562 351.039062 163.101562 351.039062 C 163.097656 351.039062 163.097656 351.042969 163.097656 351.042969 C 154.835938 359.257812 150.390625 370.453125 150.238281 383.417969 C 150.128906 392.75 152.230469 399.871094 152.652344 401.210938 C 152.664062 401.246094 152.675781 401.28125 152.6875 401.3125 C 152.800781 401.644531 163.804688 434.476562 147.386719 451.914062 C 145.875 453.519531 145.949219 456.042969 147.554688 457.554688 C 148.324219 458.28125 149.308594 458.640625 150.289062 458.640625 C 151.351562 458.640625 152.410156 458.21875 153.195312 457.382812 C 172.734375 436.632812 161.003906 400.972656 160.25 398.773438 C 159.855469 397.511719 153.292969 375.71875 166.078125 359.660156 L 203.007812 396.597656 C 199.683594 399.171875 196.125 400.945312 192.523438 402.128906 L 171.417969 381.023438 C 169.859375 379.464844 167.332031 379.464844 165.773438 381.023438 C 164.21875 382.582031 164.21875 385.109375 165.773438 386.667969 L 183.128906 404.019531 C 178.871094 404.390625 174.800781 404.160156 171.25 403.683594 C 169.066406 403.386719 167.058594 404.917969 166.761719 407.101562 C 166.464844 409.285156 167.996094 411.296875 170.179688 411.589844 C 172.535156 411.910156 175.394531 412.160156 178.578125 412.160156 C 188.371094 412.160156 201.195312 409.785156 211.53125 399.746094 C 211.578125 399.707031 211.625 399.667969 211.671875 399.621094 C 211.691406 399.601562 211.710938 399.578125 211.730469 399.558594 C 211.78125 399.503906 211.835938 399.453125 211.890625 399.402344 C 220.144531 391.203125 224.589844 380.027344 224.757812 367.082031 C 224.875 357.761719 222.769531 350.585938 222.34375 349.230469 C 222.332031 349.195312 222.320312 349.15625 222.304688 349.117188 " fill-opacity="1" fill-rule="nonzero"/></g><g clip-path="url(#3810127add)"><path fill="#50c878" d="M 409.804688 161.617188 C 409.691406 161.289062 398.6875 128.457031 415.113281 111.019531 C 416.625 109.414062 416.550781 106.890625 414.945312 105.378906 C 413.34375 103.867188 410.816406 103.941406 409.308594 105.546875 C 389.765625 126.289062 401.476562 161.917969 402.242188 164.15625 C 402.625 165.390625 409.246094 187.457031 396.21875 203.523438 L 359.234375 166.53125 C 362.589844 163.886719 366.191406 162.0625 369.839844 160.847656 L 390.859375 181.875 C 391.636719 182.65625 392.65625 183.046875 393.679688 183.046875 C 394.699219 183.046875 395.722656 182.65625 396.5 181.878906 C 398.058594 180.320312 398.058594 177.792969 396.503906 176.234375 L 379.203125 158.925781 C 383.519531 158.535156 387.652344 158.765625 391.25 159.25 C 393.433594 159.546875 395.441406 158.011719 395.738281 155.828125 C 396.035156 153.644531 394.503906 151.636719 392.316406 151.339844 C 386.972656 150.621094 378.992188 150.25 370.605469 152.367188 C 370.167969 152.40625 369.742188 152.523438 369.335938 152.707031 C 362.941406 154.507812 356.375 157.804688 350.609375 163.53125 C 350.605469 163.53125 350.605469 163.535156 350.601562 163.535156 C 350.601562 163.535156 350.601562 163.539062 350.601562 163.539062 C 350.597656 163.539062 350.597656 163.542969 350.597656 163.542969 C 342.335938 171.757812 337.890625 182.953125 337.738281 195.917969 C 337.628906 205.25 339.730469 212.371094 340.152344 213.710938 C 340.164062 213.746094 340.175781 213.78125 340.1875 213.8125 C 340.300781 214.144531 351.304688 246.976562 334.886719 264.414062 C 333.375 266.019531 333.449219 268.542969 335.054688 270.054688 C 335.824219 270.78125 336.808594 271.140625 337.789062 271.140625 C 338.851562 271.140625 339.910156 270.71875 340.695312 269.882812 C 360.234375 249.132812 348.503906 213.472656 347.75 211.273438 C 347.355469 210.011719 340.792969 188.21875 353.578125 172.160156 L 390.507812 209.097656 C 387.183594 211.671875 383.625 213.445312 380.023438 214.628906 L 358.917969 193.523438 C 357.359375 191.964844 354.832031 191.964844 353.273438 193.523438 C 351.71875 195.082031 351.71875 197.609375 353.273438 199.167969 L 370.628906 216.519531 C 366.371094 216.890625 362.300781 216.660156 358.75 216.183594 C 356.566406 215.886719 354.558594 217.417969 354.261719 219.601562 C 353.964844 221.785156 355.496094 223.796875 357.679688 224.089844 C 360.035156 224.410156 362.894531 224.660156 366.078125 224.660156 C 375.871094 224.660156 388.695312 222.285156 399.03125 212.246094 C 399.078125 212.207031 399.125 212.167969 399.171875 212.121094 C 399.191406 212.101562 399.210938 212.078125 399.230469 212.058594 C 399.28125 212.003906 399.335938 211.953125 399.390625 211.902344 C 407.644531 203.703125 412.089844 192.527344 412.257812 179.582031 C 412.375 170.261719 410.269531 163.085938 409.84375 161.730469 C 409.832031 161.695312 409.820312 161.65625 409.804688 161.617188 " fill-opacity="1" fill-rule="nonzero"/></g><path fill="#50c878" d="M 333.222656 237.117188 L 315.429688 219.324219 C 321.339844 218.273438 327.304688 218.375 332.324219 218.875 C 334.515625 219.101562 336.46875 217.496094 336.6875 215.300781 C 336.910156 213.109375 335.308594 211.152344 333.113281 210.933594 C 315.910156 209.222656 301.863281 212.921875 292.492188 221.640625 C 290.878906 223.144531 290.785156 225.667969 292.285156 227.28125 C 293.074219 228.125 294.136719 228.550781 295.207031 228.550781 C 296.179688 228.550781 297.15625 228.199219 297.925781 227.484375 C 300.554688 225.039062 303.535156 223.210938 306.6875 221.867188 L 327.582031 242.761719 C 328.359375 243.539062 329.382812 243.929688 330.402344 243.929688 C 331.421875 243.929688 332.445312 243.539062 333.222656 242.761719 C 334.78125 241.203125 334.78125 238.675781 333.222656 237.117188 " fill-opacity="1" fill-rule="nonzero"/></svg>